<svg xmlns="http://www.w3.org/2000/svg" xmlns:xlink="http://www.w3.org/1999/xlink" width="679" zoomAndPan="magnify" viewBox="0 0 509.25 195.000001" height="260" preserveAspectRatio="xMidYMid meet" version="1.0"><defs><g/><clipPath id="3c493603a3"><path d="M 0.351562 6 L 86 6 L 86 90 L 0.351562 90 Z M 0.351562 6 " clip-rule="nonzero"/></clipPath><clipPath id="3766527e1d"><rect x="0" width="378" y="0" height="126"/></clipPath><clipPath id="2e729fcc86"><path d="M 327.617188 75.171875 L 346.433594 75.171875 L 346.433594 93.984375 L 327.617188 93.984375 Z M 327.617188 75.171875 " clip-rule="nonzero"/></clipPath><clipPath id="27a69d2808"><path d="M 337.023438 75.171875 C 331.828125 75.171875 327.617188 79.382812 327.617188 84.578125 C 327.617188 89.773438 331.828125 93.984375 337.023438 93.984375 C 342.21875 93.984375 346.433594 89.773438 346.433594 84.578125 C 346.433594 79.382812 342.21875 75.171875 337.023438 75.171875 Z M 337.023438 75.171875 " clip-rule="nonzero"/></clipPath><clipPath id="05120c174f"><path d="M 0.617188 0.171875 L 19.433594 0.171875 L 19.433594 18.984375 L 0.617188 18.984375 Z M 0.617188 0.171875 " clip-rule="nonzero"/></clipPath><clipPath id="b94b6fe27d"><path d="M 10.023438 0.171875 C 4.828125 0.171875 0.617188 4.382812 0.617188 9.578125 C 0.617188 14.773438 4.828125 18.984375 10.023438 18.984375 C 15.21875 18.984375 19.433594 14.773438 19.433594 9.578125 C 19.433594 4.382812 15.21875 0.171875 10.023438 0.171875 Z M 10.023438 0.171875 " clip-rule="nonzero"/></clipPath><clipPath id="2058720000"><rect x="0" width="20" y="0" height="19"/></clipPath></defs><g transform="matrix(1, 0, 0, 1, 66, 34)"><g clip-path="url(#3766527e1d)"><g clip-path="url(#3c493603a3)"><g fill="#1149c4" fill-opacity="1"><g transform="translate(3.611565, 89.647048)"><g><path d="M 48.109375 -82.859375 L 81.5625 0 L 61.265625 0 L 55.140625 -16.578125 L 23.609375 -16.578125 L 17.46875 0 L -2.8125 0 L 30.640625 -82.859375 Z M 48.71875 -33.140625 L 39.46875 -57.25 L 39.265625 -57.25 L 30.03125 -33.140625 Z M 48.71875 -33.140625 "/></g></g></g></g><g fill="#1149c4" fill-opacity="1"><g transform="translate(86.874959, 89.647048)"><g><path d="M 6.03125 0 L 6.03125 -86.375 L 23.796875 -86.375 L 23.796875 0 Z M 6.03125 0 "/></g></g></g><g fill="#1149c4" fill-opacity="1"><g transform="translate(121.22514, 89.647048)"><g><path d="M 9.046875 -51.53125 L 9.046875 -70.703125 L 26.8125 -70.703125 L 26.8125 -51.53125 L 37.65625 -51.53125 L 37.65625 -37.96875 L 26.8125 -37.96875 L 26.8125 -21.59375 C 26.8125 -16.84375 28.148438 -14.46875 30.828125 -14.46875 C 31.503906 -14.46875 32.207031 -14.597656 32.9375 -14.859375 C 33.675781 -15.128906 34.25 -15.398438 34.65625 -15.671875 L 35.25 -16.0625 L 39.671875 -1.703125 C 35.859375 0.429688 31.503906 1.5 26.609375 1.5 C 23.265625 1.5 20.382812 0.914062 17.96875 -0.25 C 15.5625 -1.425781 13.738281 -3 12.5 -4.96875 C 11.257812 -6.945312 10.375 -9.023438 9.84375 -11.203125 C 9.3125 -13.378906 9.046875 -15.703125 9.046875 -18.171875 L 9.046875 -37.96875 L 1.609375 -37.96875 L 1.609375 -51.53125 Z M 9.046875 -51.53125 "/></g></g></g><g fill="#1149c4" fill-opacity="1"><g transform="translate(165.418223, 89.647048)"><g><path d="M 7.734375 -80.25 C 9.804688 -82.320312 12.28125 -83.359375 15.15625 -83.359375 C 18.039062 -83.359375 20.519531 -82.320312 22.59375 -80.25 C 24.675781 -78.175781 25.71875 -75.695312 25.71875 -72.8125 C 25.71875 -69.9375 24.675781 -67.457031 22.59375 -65.375 C 20.519531 -63.300781 18.039062 -62.265625 15.15625 -62.265625 C 12.28125 -62.265625 9.804688 -63.300781 7.734375 -65.375 C 5.660156 -67.457031 4.625 -69.9375 4.625 -72.8125 C 4.625 -75.695312 5.660156 -78.175781 7.734375 -80.25 Z M 6.03125 -51.53125 L 6.03125 0 L 23.796875 0 L 23.796875 -51.53125 Z M 6.03125 -51.53125 "/></g></g></g><g fill="#1149c4" fill-opacity="1"><g transform="translate(200.270589, 89.647048)"><g><path d="M 28.421875 -53.03125 C 31.367188 -53.03125 34.28125 -52.691406 37.15625 -52.015625 C 40.039062 -51.347656 42.1875 -50.679688 43.59375 -50.015625 L 45.703125 -49.015625 L 39.875 -37.359375 C 35.851562 -39.503906 32.035156 -40.578125 28.421875 -40.578125 C 26.410156 -40.578125 24.988281 -40.359375 24.15625 -39.921875 C 23.320312 -39.484375 22.90625 -38.664062 22.90625 -37.46875 C 22.90625 -37.195312 22.9375 -36.925781 23 -36.65625 C 23.0625 -36.394531 23.191406 -36.144531 23.390625 -35.90625 C 23.597656 -35.675781 23.785156 -35.472656 23.953125 -35.296875 C 24.117188 -35.128906 24.398438 -34.945312 24.796875 -34.75 C 25.203125 -34.550781 25.519531 -34.398438 25.75 -34.296875 C 25.988281 -34.203125 26.375 -34.050781 26.90625 -33.84375 C 27.445312 -33.644531 27.851562 -33.492188 28.125 -33.390625 C 28.394531 -33.296875 28.847656 -33.144531 29.484375 -32.9375 C 30.117188 -32.738281 30.601562 -32.609375 30.9375 -32.546875 C 33.007812 -31.941406 34.816406 -31.269531 36.359375 -30.53125 C 37.898438 -29.789062 39.523438 -28.785156 41.234375 -27.515625 C 42.941406 -26.242188 44.265625 -24.632812 45.203125 -22.6875 C 46.140625 -20.75 46.609375 -18.539062 46.609375 -16.0625 C 46.609375 -4.351562 38.472656 1.5 22.203125 1.5 C 18.515625 1.5 15.015625 0.929688 11.703125 -0.203125 C 8.390625 -1.335938 5.992188 -2.472656 4.515625 -3.609375 L 2.3125 -5.421875 L 9.546875 -17.578125 C 10.078125 -17.109375 10.773438 -16.554688 11.640625 -15.921875 C 12.515625 -15.285156 14.085938 -14.414062 16.359375 -13.3125 C 18.640625 -12.207031 20.617188 -11.65625 22.296875 -11.65625 C 25.984375 -11.65625 27.828125 -12.890625 27.828125 -15.359375 C 27.828125 -16.503906 27.359375 -17.394531 26.421875 -18.03125 C 25.484375 -18.664062 23.890625 -19.382812 21.640625 -20.1875 C 19.398438 -20.988281 17.644531 -21.722656 16.375 -22.390625 C 13.15625 -24.066406 10.609375 -25.957031 8.734375 -28.0625 C 6.859375 -30.175781 5.921875 -32.972656 5.921875 -36.453125 C 5.921875 -41.679688 7.945312 -45.75 12 -48.65625 C 16.050781 -51.570312 21.523438 -53.03125 28.421875 -53.03125 Z M 28.421875 -53.03125 "/></g></g></g><g fill="#1149c4" fill-opacity="1"><g transform="translate(254.206142, 89.647048)"><g><path d="M 6.03125 0 L 6.03125 -51.53125 L 23.796875 -51.53125 L 23.796875 -44.09375 L 24 -44.09375 C 24.132812 -44.363281 24.351562 -44.695312 24.65625 -45.09375 C 24.957031 -45.5 25.609375 -46.203125 26.609375 -47.203125 C 27.617188 -48.210938 28.691406 -49.117188 29.828125 -49.921875 C 30.960938 -50.722656 32.4375 -51.441406 34.25 -52.078125 C 36.0625 -52.710938 37.898438 -53.03125 39.765625 -53.03125 C 41.710938 -53.03125 43.625 -52.757812 45.5 -52.21875 C 47.375 -51.6875 48.742188 -51.15625 49.609375 -50.625 L 51.015625 -49.8125 L 43.59375 -34.75 C 41.382812 -36.625 38.300781 -37.5625 34.34375 -37.5625 C 32.207031 -37.5625 30.367188 -37.09375 28.828125 -36.15625 C 27.285156 -35.21875 26.195312 -34.078125 25.5625 -32.734375 C 24.925781 -31.398438 24.472656 -30.265625 24.203125 -29.328125 C 23.929688 -28.390625 23.796875 -27.65625 23.796875 -27.125 L 23.796875 0 Z M 6.03125 0 "/></g></g></g><g fill="#1149c4" fill-opacity="1"><g transform="translate(308.744311, 89.647048)"><g><path d="M 45.09375 -51.53125 L 65.578125 -51.53125 L 25.109375 26.109375 L 4.625 26.109375 L 22.390625 -8.03125 L -2.015625 -51.53125 L 18.484375 -51.53125 L 32.84375 -25.109375 Z M 45.09375 -51.53125 "/></g></g></g></g></g><g clip-path="url(#2e729fcc86)"><g clip-path="url(#27a69d2808)"><g transform="matrix(1, 0, 0, 1, 327, 75)"><g clip-path="url(#2058720000)"><g clip-path="url(#05120c174f)"><g clip-path="url(#b94b6fe27d)"><path fill="#1149c4" d="M 0.617188 0.171875 L 19.433594 0.171875 L 19.433594 18.984375 L 0.617188 18.984375 Z M 0.617188 0.171875 " fill-opacity="1" fill-rule="nonzero"/></g></g></g></g></g></g></svg>