<svg xmlns="http://www.w3.org/2000/svg" xmlns:xlink="http://www.w3.org/1999/xlink" width="602" zoomAndPan="magnify" viewBox="0 0 451.5 464.25" height="619" preserveAspectRatio="xMidYMid meet" version="1.0"><defs><clipPath id="b5142a9f23"><path d="M 0.113281 0 L 450.40625 0 L 450.40625 463 L 0.113281 463 Z M 0.113281 0 " clip-rule="nonzero"/></clipPath><clipPath id="5be6d22d77"><path d="M 63.011719 0 L 387.507812 0 C 404.1875 0 420.1875 6.625 431.980469 18.421875 C 443.777344 30.21875 450.40625 46.214844 450.40625 62.898438 L 450.40625 400.039062 C 450.40625 416.722656 443.777344 432.71875 431.980469 444.515625 C 420.1875 456.3125 404.1875 462.9375 387.507812 462.9375 L 63.011719 462.9375 C 46.332031 462.9375 30.332031 456.3125 18.535156 444.515625 C 6.742188 432.71875 0.113281 416.722656 0.113281 400.039062 L 0.113281 62.898438 C 0.113281 46.214844 6.742188 30.21875 18.535156 18.421875 C 30.332031 6.625 46.332031 0 63.011719 0 Z M 63.011719 0 " clip-rule="nonzero"/></clipPath><clipPath id="c74b077baa"><path d="M 0.113281 0 L 450.40625 0 L 450.40625 463 L 0.113281 463 Z M 0.113281 0 " clip-rule="nonzero"/></clipPath><clipPath id="57eb0f09c4"><path d="M 63.011719 0 L 387.507812 0 C 404.1875 0 420.1875 6.625 431.980469 18.421875 C 443.777344 30.21875 450.40625 46.214844 450.40625 62.898438 L 450.40625 400.039062 C 450.40625 416.722656 443.777344 432.71875 431.980469 444.515625 C 420.1875 456.3125 404.1875 462.9375 387.507812 462.9375 L 63.011719 462.9375 C 46.332031 462.9375 30.332031 456.3125 18.535156 444.515625 C 6.742188 432.71875 0.113281 416.722656 0.113281 400.039062 L 0.113281 62.898438 C 0.113281 46.214844 6.742188 30.21875 18.535156 18.421875 C 30.332031 6.625 46.332031 0 63.011719 0 Z M 63.011719 0 " clip-rule="nonzero"/></clipPath><clipPath id="9e9e8017c9"><rect x="0" width="451" y="0" height="463"/></clipPath><clipPath id="3ed84da391"><path d="M 53.273438 151.515625 L 217.789062 151.515625 L 217.789062 296.574219 L 53.273438 296.574219 Z M 53.273438 151.515625 " clip-rule="nonzero"/></clipPath><clipPath id="1f4521d19a"><path d="M 140.605469 154.722656 L 216.464844 287.472656 C 217.539062 289.355469 217.53125 291.667969 216.445312 293.542969 C 215.355469 295.421875 213.351562 296.574219 211.183594 296.574219 L 59.628906 296.574219 C 57.460938 296.574219 55.453125 295.421875 54.367188 293.542969 C 53.277344 291.667969 53.269531 289.355469 54.347656 287.472656 L 130.203125 154.722656 C 131.269531 152.855469 133.253906 151.703125 135.40625 151.703125 C 137.554688 151.703125 139.539062 152.855469 140.605469 154.722656 Z M 140.605469 154.722656 " clip-rule="nonzero"/></clipPath><clipPath id="56fc356c56"><path d="M 0.273438 0.675781 L 164.683594 0.675781 L 164.683594 145.574219 L 0.273438 145.574219 Z M 0.273438 0.675781 " clip-rule="nonzero"/></clipPath><clipPath id="303028c4d6"><path d="M 87.605469 3.722656 L 163.464844 136.472656 C 164.539062 138.355469 164.53125 140.667969 163.445312 142.542969 C 162.355469 144.421875 160.351562 145.574219 158.183594 145.574219 L 6.628906 145.574219 C 4.460938 145.574219 2.453125 144.421875 1.367188 142.542969 C 0.277344 140.667969 0.269531 138.355469 1.347656 136.472656 L 77.203125 3.722656 C 78.269531 1.855469 80.253906 0.703125 82.40625 0.703125 C 84.554688 0.703125 86.539062 1.855469 87.605469 3.722656 Z M 87.605469 3.722656 " clip-rule="nonzero"/></clipPath><clipPath id="1944343cfb"><rect x="0" width="165" y="0" height="146"/></clipPath><clipPath id="0b5cb3820a"><path d="M 156.359375 133.148438 L 293.875 133.148438 L 293.875 254.71875 L 156.359375 254.71875 Z M 156.359375 133.148438 " clip-rule="nonzero"/></clipPath><clipPath id="24d3e748d2"><path d="M 230.460938 251.597656 L 292.945312 142.25 C 294.023438 140.367188 294.015625 138.050781 292.925781 136.175781 C 291.835938 134.300781 289.832031 133.148438 287.664062 133.148438 L 162.855469 133.148438 C 160.6875 133.148438 158.683594 134.300781 157.59375 136.175781 C 156.503906 138.050781 156.496094 140.367188 157.574219 142.25 L 220.058594 251.597656 C 221.125 253.464844 223.109375 254.617188 225.257812 254.617188 C 227.410156 254.617188 229.394531 253.464844 230.460938 251.597656 Z M 230.460938 251.597656 " clip-rule="nonzero"/></clipPath><clipPath id="86fe63a834"><path d="M 0.359375 0.148438 L 137.875 0.148438 L 137.875 121.707031 L 0.359375 121.707031 Z M 0.359375 0.148438 " clip-rule="nonzero"/></clipPath><clipPath id="bd02a1d2ad"><path d="M 74.460938 118.597656 L 136.945312 9.25 C 138.023438 7.367188 138.015625 5.050781 136.925781 3.175781 C 135.835938 1.300781 133.832031 0.148438 131.664062 0.148438 L 6.855469 0.148438 C 4.6875 0.148438 2.683594 1.300781 1.59375 3.175781 C 0.503906 5.050781 0.496094 7.367188 1.574219 9.25 L 64.058594 118.597656 C 65.125 120.464844 67.109375 121.617188 69.257812 121.617188 C 71.410156 121.617188 73.394531 120.464844 74.460938 118.597656 Z M 74.460938 118.597656 " clip-rule="nonzero"/></clipPath><clipPath id="db3d2202e7"><rect x="0" width="138" y="0" height="122"/></clipPath><clipPath id="f8cb0b7c1c"><path d="M 233 151.515625 L 397 151.515625 L 397 296.574219 L 233 296.574219 Z M 233 151.515625 " clip-rule="nonzero"/></clipPath><clipPath id="a3919bc9c5"><path d="M 320.316406 154.722656 L 396.171875 287.472656 C 397.25 289.355469 397.242188 291.667969 396.152344 293.542969 C 395.066406 295.421875 393.058594 296.574219 390.890625 296.574219 L 239.335938 296.574219 C 237.167969 296.574219 235.164062 295.421875 234.074219 293.542969 C 232.988281 291.667969 232.980469 289.355469 234.054688 287.472656 L 309.914062 154.722656 C 310.980469 152.855469 312.964844 151.703125 315.113281 151.703125 C 317.265625 151.703125 319.25 152.855469 320.316406 154.722656 Z M 320.316406 154.722656 " clip-rule="nonzero"/></clipPath><clipPath id="5605002440"><path d="M 0 0.675781 L 164 0.675781 L 164 145.574219 L 0 145.574219 Z M 0 0.675781 " clip-rule="nonzero"/></clipPath><clipPath id="dd206db7d1"><path d="M 87.316406 3.722656 L 163.171875 136.472656 C 164.25 138.355469 164.242188 140.667969 163.152344 142.542969 C 162.066406 144.421875 160.058594 145.574219 157.890625 145.574219 L 6.335938 145.574219 C 4.167969 145.574219 2.164062 144.421875 1.074219 142.542969 C -0.0117188 140.667969 -0.0195312 138.355469 1.054688 136.472656 L 76.914062 3.722656 C 77.980469 1.855469 79.964844 0.703125 82.113281 0.703125 C 84.265625 0.703125 86.25 1.855469 87.316406 3.722656 Z M 87.316406 3.722656 " clip-rule="nonzero"/></clipPath><clipPath id="12e4b08e66"><rect x="0" width="164" y="0" height="146"/></clipPath></defs><g clip-path="url(#b5142a9f23)"><g clip-path="url(#5be6d22d77)"><g transform="matrix(1, 0, 0, 1, 0, 0.000000000000042165)"><g clip-path="url(#9e9e8017c9)"><g clip-path="url(#c74b077baa)"><g clip-path="url(#57eb0f09c4)"><path fill="#ffffff" d="M 0.113281 0 L 450.40625 0 L 450.40625 462.601562 L 0.113281 462.601562 Z M 0.113281 0 " fill-opacity="1" fill-rule="nonzero"/></g></g></g></g></g></g><g clip-path="url(#3ed84da391)"><g clip-path="url(#1f4521d19a)"><g transform="matrix(1, 0, 0, 1, 53, 151)"><g clip-path="url(#1944343cfb)"><g clip-path="url(#56fc356c56)"><g clip-path="url(#303028c4d6)"><path fill="#15c411" d="M -3.855469 -5.382812 L 168.917969 -5.382812 L 168.917969 145.574219 L -3.855469 145.574219 Z M -3.855469 -5.382812 " fill-opacity="1" fill-rule="nonzero"/></g></g></g></g></g></g><g clip-path="url(#0b5cb3820a)"><g clip-path="url(#24d3e748d2)"><g transform="matrix(1, 0, 0, 1, 156, 133)"><g clip-path="url(#db3d2202e7)"><g clip-path="url(#86fe63a834)"><g clip-path="url(#bd02a1d2ad)"><path fill="#15c411" d="M -3.628906 0.148438 L 142.359375 0.148438 L 142.359375 127.699219 L -3.628906 127.699219 Z M -3.628906 0.148438 " fill-opacity="1" fill-rule="nonzero"/></g></g></g></g></g></g><g clip-path="url(#f8cb0b7c1c)"><g clip-path="url(#a3919bc9c5)"><g transform="matrix(1, 0, 0, 1, 233, 151)"><g clip-path="url(#12e4b08e66)"><g clip-path="url(#5605002440)"><g clip-path="url(#dd206db7d1)"><path fill="#15c411" d="M -4.144531 -5.382812 L 168.628906 -5.382812 L 168.628906 145.574219 L -4.144531 145.574219 Z M -4.144531 -5.382812 " fill-opacity="1" fill-rule="nonzero"/></g></g></g></g></g></g></svg>