<svg xmlns="http://www.w3.org/2000/svg" xmlns:xlink="http://www.w3.org/1999/xlink" width="343" zoomAndPan="magnify" viewBox="0 0 257.25 90.75" height="121" preserveAspectRatio="xMidYMid meet" version="1.0"><defs><g/><clipPath id="7d3674f3e6"><path d="M 0.046875 17.300781 L 43.980469 17.300781 L 43.980469 62.046875 L 0.046875 62.046875 Z M 0.046875 17.300781 " clip-rule="nonzero"/></clipPath><clipPath id="4b2aa052b5"><path d="M 6.183594 17.300781 L 37.84375 17.300781 C 39.472656 17.300781 41.03125 17.941406 42.183594 19.082031 C 43.332031 20.21875 43.980469 21.765625 43.980469 23.378906 L 43.980469 55.964844 C 43.980469 57.574219 43.332031 59.121094 42.183594 60.261719 C 41.03125 61.402344 39.472656 62.042969 37.84375 62.042969 L 6.183594 62.042969 C 4.554688 62.042969 2.992188 61.402344 1.84375 60.261719 C 0.691406 59.121094 0.046875 57.574219 0.046875 55.964844 L 0.046875 23.378906 C 0.046875 21.765625 0.691406 20.21875 1.84375 19.082031 C 2.992188 17.941406 4.554688 17.300781 6.183594 17.300781 Z M 6.183594 17.300781 " clip-rule="nonzero"/></clipPath><clipPath id="da70b0be6c"><path d="M 6.183594 17.300781 L 37.84375 17.300781 C 39.472656 17.300781 41.03125 17.941406 42.183594 19.082031 C 43.332031 20.21875 43.980469 21.765625 43.980469 23.378906 L 43.980469 55.964844 C 43.980469 57.574219 43.332031 59.121094 42.183594 60.261719 C 41.03125 61.402344 39.472656 62.042969 37.84375 62.042969 L 6.183594 62.042969 C 4.554688 62.042969 2.992188 61.402344 1.84375 60.261719 C 0.691406 59.121094 0.046875 57.574219 0.046875 55.964844 L 0.046875 23.378906 C 0.046875 21.765625 0.691406 20.21875 1.84375 19.082031 C 2.992188 17.941406 4.554688 17.300781 6.183594 17.300781 Z M 6.183594 17.300781 " clip-rule="nonzero"/></clipPath><clipPath id="47371a3e6f"><path d="M 5.230469 31.960938 L 21.273438 31.960938 L 21.273438 45.964844 L 5.230469 45.964844 Z M 5.230469 31.960938 " clip-rule="nonzero"/></clipPath><clipPath id="7efdb07a0c"><path d="M 13.753906 32.253906 L 21.15625 45.082031 C 21.257812 45.265625 21.257812 45.488281 21.152344 45.671875 C 21.046875 45.851562 20.851562 45.964844 20.640625 45.964844 L 5.851562 45.964844 C 5.640625 45.964844 5.445312 45.851562 5.339844 45.671875 C 5.234375 45.488281 5.230469 45.265625 5.335938 45.082031 L 12.738281 32.253906 C 12.84375 32.074219 13.035156 31.960938 13.246094 31.960938 C 13.457031 31.960938 13.648438 32.074219 13.753906 32.253906 Z M 13.753906 32.253906 " clip-rule="nonzero"/></clipPath><clipPath id="2814a90b28"><path d="M 13.753906 32.253906 L 21.15625 45.082031 C 21.257812 45.265625 21.257812 45.488281 21.152344 45.671875 C 21.046875 45.851562 20.851562 45.964844 20.640625 45.964844 L 5.851562 45.964844 C 5.640625 45.964844 5.445312 45.851562 5.339844 45.671875 C 5.234375 45.488281 5.230469 45.265625 5.335938 45.082031 L 12.738281 32.253906 C 12.84375 32.074219 13.035156 31.960938 13.246094 31.960938 C 13.457031 31.960938 13.648438 32.074219 13.753906 32.253906 Z M 13.753906 32.253906 " clip-rule="nonzero"/></clipPath><clipPath id="edb027a574"><path d="M 15.289062 30.167969 L 28.707031 30.167969 L 28.707031 41.917969 L 15.289062 41.917969 Z M 15.289062 30.167969 " clip-rule="nonzero"/></clipPath><clipPath id="2bd06139ee"><path d="M 22.519531 41.617188 L 28.617188 31.046875 C 28.722656 30.867188 28.722656 30.640625 28.613281 30.460938 C 28.507812 30.28125 28.3125 30.167969 28.101562 30.167969 L 15.925781 30.167969 C 15.710938 30.167969 15.515625 30.28125 15.410156 30.460938 C 15.304688 30.640625 15.304688 30.867188 15.410156 31.046875 L 21.503906 41.617188 C 21.609375 41.796875 21.804688 41.910156 22.011719 41.910156 C 22.222656 41.910156 22.417969 41.796875 22.519531 41.617188 Z M 22.519531 41.617188 " clip-rule="nonzero"/></clipPath><clipPath id="25747087bb"><path d="M 22.519531 41.617188 L 28.617188 31.046875 C 28.722656 30.867188 28.722656 30.640625 28.613281 30.460938 C 28.507812 30.28125 28.3125 30.167969 28.101562 30.167969 L 15.925781 30.167969 C 15.710938 30.167969 15.515625 30.28125 15.410156 30.460938 C 15.304688 30.640625 15.304688 30.867188 15.410156 31.046875 L 21.503906 41.617188 C 21.609375 41.796875 21.804688 41.910156 22.011719 41.910156 C 22.222656 41.910156 22.417969 41.796875 22.519531 41.617188 Z M 22.519531 41.617188 " clip-rule="nonzero"/></clipPath><clipPath id="8a52f144c3"><path d="M 22.769531 31.960938 L 38.769531 31.960938 L 38.769531 45.964844 L 22.769531 45.964844 Z M 22.769531 31.960938 " clip-rule="nonzero"/></clipPath><clipPath id="5d4872a062"><path d="M 31.289062 32.253906 L 38.6875 45.082031 C 38.792969 45.265625 38.792969 45.488281 38.6875 45.671875 C 38.582031 45.851562 38.386719 45.964844 38.171875 45.964844 L 23.386719 45.964844 C 23.175781 45.964844 22.980469 45.851562 22.871094 45.671875 C 22.765625 45.488281 22.765625 45.265625 22.871094 45.082031 L 30.273438 32.253906 C 30.375 32.074219 30.570312 31.960938 30.78125 31.960938 C 30.988281 31.960938 31.183594 32.074219 31.289062 32.253906 Z M 31.289062 32.253906 " clip-rule="nonzero"/></clipPath><clipPath id="61e39a3ce5"><path d="M 31.289062 32.253906 L 38.6875 45.082031 C 38.792969 45.265625 38.792969 45.488281 38.6875 45.671875 C 38.582031 45.851562 38.386719 45.964844 38.171875 45.964844 L 23.386719 45.964844 C 23.175781 45.964844 22.980469 45.851562 22.871094 45.671875 C 22.765625 45.488281 22.765625 45.265625 22.871094 45.082031 L 30.273438 32.253906 C 30.375 32.074219 30.570312 31.960938 30.78125 31.960938 C 30.988281 31.960938 31.183594 32.074219 31.289062 32.253906 Z M 31.289062 32.253906 " clip-rule="nonzero"/></clipPath></defs><g clip-path="url(#7d3674f3e6)"><g clip-path="url(#4b2aa052b5)"><g clip-path="url(#da70b0be6c)"><path fill="#ffffff" d="M 0.046875 17.300781 L 43.980469 17.300781 L 43.980469 62.007812 L 0.046875 62.007812 Z M 0.046875 17.300781 " fill-opacity="1" fill-rule="nonzero"/></g></g></g><g clip-path="url(#47371a3e6f)"><g clip-path="url(#7efdb07a0c)"><g clip-path="url(#2814a90b28)"><path fill="#15c411" d="M 4.828125 31.375 L 21.6875 31.375 L 21.6875 45.964844 L 4.828125 45.964844 Z M 4.828125 31.375 " fill-opacity="1" fill-rule="nonzero"/></g></g></g><g clip-path="url(#edb027a574)"><g clip-path="url(#2bd06139ee)"><g clip-path="url(#25747087bb)"><path fill="#15c411" d="M 14.902344 30.167969 L 29.144531 30.167969 L 29.144531 42.496094 L 14.902344 42.496094 Z M 14.902344 30.167969 " fill-opacity="1" fill-rule="nonzero"/></g></g></g><g clip-path="url(#8a52f144c3)"><g clip-path="url(#5d4872a062)"><g clip-path="url(#61e39a3ce5)"><path fill="#15c411" d="M 22.363281 31.375 L 39.222656 31.375 L 39.222656 45.964844 L 22.363281 45.964844 Z M 22.363281 31.375 " fill-opacity="1" fill-rule="nonzero"/></g></g></g><g fill="#ffffff" fill-opacity="1"><g transform="translate(59.195199, 57.482707)"><g><path d="M 22.453125 -38.65625 L 38.046875 0 L 28.578125 0 L 25.71875 -7.734375 L 11.015625 -7.734375 L 8.15625 0 L -1.3125 0 L 14.296875 -38.65625 Z M 22.734375 -15.46875 L 18.421875 -26.703125 L 18.328125 -26.703125 L 14.015625 -15.46875 Z M 22.734375 -15.46875 "/></g></g></g><g fill="#ffffff" fill-opacity="1"><g transform="translate(98.038772, 57.482707)"><g><path d="M 2.8125 0 L 2.8125 -40.296875 L 11.109375 -40.296875 L 11.109375 0 Z M 2.8125 0 "/></g></g></g><g fill="#ffffff" fill-opacity="1"><g transform="translate(114.063711, 57.482707)"><g><path d="M 4.21875 -24.03125 L 4.21875 -32.984375 L 12.515625 -32.984375 L 12.515625 -24.03125 L 17.578125 -24.03125 L 17.578125 -17.71875 L 12.515625 -17.71875 L 12.515625 -10.078125 C 12.515625 -7.859375 13.140625 -6.75 14.390625 -6.75 C 14.703125 -6.75 15.03125 -6.8125 15.375 -6.9375 C 15.71875 -7.0625 15.984375 -7.1875 16.171875 -7.3125 L 16.453125 -7.5 L 18.515625 -0.796875 C 16.734375 0.203125 14.703125 0.703125 12.421875 0.703125 C 10.859375 0.703125 9.515625 0.429688 8.390625 -0.109375 C 7.265625 -0.660156 6.410156 -1.394531 5.828125 -2.3125 C 5.253906 -3.238281 4.84375 -4.207031 4.59375 -5.21875 C 4.34375 -6.238281 4.21875 -7.328125 4.21875 -8.484375 L 4.21875 -17.71875 L 0.75 -17.71875 L 0.75 -24.03125 Z M 4.21875 -24.03125 "/></g></g></g><g fill="#ffffff" fill-opacity="1"><g transform="translate(134.68049, 57.482707)"><g><path d="M 3.609375 -37.4375 C 4.578125 -38.40625 5.734375 -38.890625 7.078125 -38.890625 C 8.421875 -38.890625 9.578125 -38.40625 10.546875 -37.4375 C 11.515625 -36.46875 12 -35.3125 12 -33.96875 C 12 -32.625 11.515625 -31.46875 10.546875 -30.5 C 9.578125 -29.53125 8.421875 -29.046875 7.078125 -29.046875 C 5.734375 -29.046875 4.578125 -29.53125 3.609375 -30.5 C 2.640625 -31.46875 2.15625 -32.625 2.15625 -33.96875 C 2.15625 -35.3125 2.640625 -36.46875 3.609375 -37.4375 Z M 2.8125 -24.03125 L 2.8125 0 L 11.109375 0 L 11.109375 -24.03125 Z M 2.8125 -24.03125 "/></g></g></g><g fill="#ffffff" fill-opacity="1"><g transform="translate(150.939704, 57.482707)"><g><path d="M 13.265625 -24.734375 C 14.640625 -24.734375 16 -24.578125 17.34375 -24.265625 C 18.6875 -23.953125 19.6875 -23.640625 20.34375 -23.328125 L 21.328125 -22.875 L 18.609375 -17.4375 C 16.734375 -18.4375 14.953125 -18.9375 13.265625 -18.9375 C 12.328125 -18.9375 11.660156 -18.832031 11.265625 -18.625 C 10.878906 -18.425781 10.6875 -18.046875 10.6875 -17.484375 C 10.6875 -17.359375 10.703125 -17.234375 10.734375 -17.109375 C 10.765625 -16.984375 10.828125 -16.863281 10.921875 -16.75 C 11.015625 -16.644531 11.097656 -16.550781 11.171875 -16.46875 C 11.253906 -16.394531 11.390625 -16.3125 11.578125 -16.21875 C 11.765625 -16.125 11.910156 -16.050781 12.015625 -16 C 12.128906 -15.957031 12.3125 -15.890625 12.5625 -15.796875 C 12.8125 -15.703125 13 -15.628906 13.125 -15.578125 C 13.25 -15.535156 13.457031 -15.46875 13.75 -15.375 C 14.050781 -15.28125 14.28125 -15.21875 14.4375 -15.1875 C 15.40625 -14.90625 16.25 -14.59375 16.96875 -14.25 C 17.6875 -13.90625 18.441406 -13.4375 19.234375 -12.84375 C 20.035156 -12.25 20.65625 -11.5 21.09375 -10.59375 C 21.53125 -9.6875 21.75 -8.65625 21.75 -7.5 C 21.75 -2.03125 17.953125 0.703125 10.359375 0.703125 C 8.640625 0.703125 7.003906 0.4375 5.453125 -0.09375 C 3.910156 -0.625 2.796875 -1.15625 2.109375 -1.6875 L 1.078125 -2.53125 L 4.453125 -8.203125 C 4.703125 -7.984375 5.03125 -7.722656 5.4375 -7.421875 C 5.84375 -7.128906 6.578125 -6.722656 7.640625 -6.203125 C 8.703125 -5.691406 9.625 -5.4375 10.40625 -5.4375 C 12.125 -5.4375 12.984375 -6.015625 12.984375 -7.171875 C 12.984375 -7.703125 12.765625 -8.113281 12.328125 -8.40625 C 11.890625 -8.707031 11.144531 -9.046875 10.09375 -9.421875 C 9.050781 -9.796875 8.234375 -10.140625 7.640625 -10.453125 C 6.140625 -11.234375 4.953125 -12.113281 4.078125 -13.09375 C 3.203125 -14.082031 2.765625 -15.390625 2.765625 -17.015625 C 2.765625 -19.453125 3.707031 -21.347656 5.59375 -22.703125 C 7.488281 -24.054688 10.046875 -24.734375 13.265625 -24.734375 Z M 13.265625 -24.734375 "/></g></g></g><g fill="#ffffff" fill-opacity="1"><g transform="translate(176.10146, 57.482707)"><g><path d="M 2.8125 0 L 2.8125 -24.03125 L 11.109375 -24.03125 L 11.109375 -20.578125 L 11.203125 -20.578125 C 11.265625 -20.703125 11.363281 -20.859375 11.5 -21.046875 C 11.644531 -21.234375 11.953125 -21.5625 12.421875 -22.03125 C 12.890625 -22.5 13.390625 -22.914062 13.921875 -23.28125 C 14.453125 -23.65625 15.140625 -23.988281 15.984375 -24.28125 C 16.828125 -24.582031 17.6875 -24.734375 18.5625 -24.734375 C 19.46875 -24.734375 20.359375 -24.609375 21.234375 -24.359375 C 22.109375 -24.109375 22.75 -23.859375 23.15625 -23.609375 L 23.796875 -23.25 L 20.34375 -16.21875 C 19.3125 -17.09375 17.875 -17.53125 16.03125 -17.53125 C 15.03125 -17.53125 14.171875 -17.3125 13.453125 -16.875 C 12.734375 -16.4375 12.222656 -15.90625 11.921875 -15.28125 C 11.628906 -14.65625 11.421875 -14.125 11.296875 -13.6875 C 11.171875 -13.25 11.109375 -12.90625 11.109375 -12.65625 L 11.109375 0 Z M 2.8125 0 "/></g></g></g><g fill="#ffffff" fill-opacity="1"><g transform="translate(201.544356, 57.482707)"><g><path d="M 21.046875 -24.03125 L 30.59375 -24.03125 L 11.71875 12.1875 L 2.15625 12.1875 L 10.453125 -3.75 L -0.9375 -24.03125 L 8.625 -24.03125 L 15.328125 -11.71875 Z M 21.046875 -24.03125 "/></g></g></g></svg>