<svg xmlns="http://www.w3.org/2000/svg" xmlns:xlink="http://www.w3.org/1999/xlink" width="332" zoomAndPan="magnify" viewBox="0 0 249 90.749999" height="121" preserveAspectRatio="xMidYMid meet" version="1.0"><defs><g/><clipPath id="efc025f25f"><path d="M 0.382812 17.296875 L 42.09375 17.296875 L 42.09375 60.558594 L 0.382812 60.558594 Z M 0.382812 17.296875 " clip-rule="nonzero"/></clipPath><clipPath id="b2483f9055"><path d="M 6.210938 17.296875 L 36.269531 17.296875 C 37.8125 17.296875 39.292969 17.914062 40.386719 19.015625 C 41.480469 20.117188 42.09375 21.613281 42.09375 23.171875 L 42.09375 54.675781 C 42.09375 56.234375 41.480469 57.730469 40.386719 58.832031 C 39.292969 59.933594 37.8125 60.554688 36.269531 60.554688 L 6.210938 60.554688 C 4.664062 60.554688 3.183594 59.933594 2.089844 58.832031 C 0.996094 57.730469 0.382812 56.234375 0.382812 54.675781 L 0.382812 23.171875 C 0.382812 21.613281 0.996094 20.117188 2.089844 19.015625 C 3.183594 17.914062 4.664062 17.296875 6.210938 17.296875 Z M 6.210938 17.296875 " clip-rule="nonzero"/></clipPath><clipPath id="f51fcb11f0"><path d="M 6.210938 17.296875 L 36.269531 17.296875 C 37.8125 17.296875 39.292969 17.914062 40.386719 19.015625 C 41.480469 20.117188 42.09375 21.613281 42.09375 23.171875 L 42.09375 54.675781 C 42.09375 56.234375 41.480469 57.730469 40.386719 58.832031 C 39.292969 59.933594 37.8125 60.554688 36.269531 60.554688 L 6.210938 60.554688 C 4.664062 60.554688 3.183594 59.933594 2.089844 58.832031 C 0.996094 57.730469 0.382812 56.234375 0.382812 54.675781 L 0.382812 23.171875 C 0.382812 21.613281 0.996094 20.117188 2.089844 19.015625 C 3.183594 17.914062 4.664062 17.296875 6.210938 17.296875 Z M 6.210938 17.296875 " clip-rule="nonzero"/></clipPath><clipPath id="259bcba1e8"><path d="M 5.308594 31.46875 L 20.539062 31.46875 L 20.539062 45.007812 L 5.308594 45.007812 Z M 5.308594 31.46875 " clip-rule="nonzero"/></clipPath><clipPath id="37da4f43e1"><path d="M 13.398438 31.753906 L 20.425781 44.15625 C 20.523438 44.332031 20.523438 44.550781 20.421875 44.726562 C 20.320312 44.898438 20.136719 45.007812 19.933594 45.007812 L 5.898438 45.007812 C 5.695312 45.007812 5.511719 44.898438 5.410156 44.726562 C 5.308594 44.550781 5.308594 44.332031 5.40625 44.15625 L 12.433594 31.753906 C 12.53125 31.578125 12.714844 31.472656 12.914062 31.472656 C 13.113281 31.472656 13.296875 31.578125 13.398438 31.753906 Z M 13.398438 31.753906 " clip-rule="nonzero"/></clipPath><clipPath id="f98371b19e"><path d="M 13.398438 31.753906 L 20.425781 44.15625 C 20.523438 44.332031 20.523438 44.550781 20.421875 44.726562 C 20.320312 44.898438 20.136719 45.007812 19.933594 45.007812 L 5.898438 45.007812 C 5.695312 45.007812 5.511719 44.898438 5.410156 44.726562 C 5.308594 44.550781 5.308594 44.332031 5.40625 44.15625 L 12.433594 31.753906 C 12.53125 31.578125 12.714844 31.472656 12.914062 31.472656 C 13.113281 31.472656 13.296875 31.578125 13.398438 31.753906 Z M 13.398438 31.753906 " clip-rule="nonzero"/></clipPath><clipPath id="ee8fa9f731"><path d="M 14.855469 29.738281 L 27.59375 29.738281 L 27.59375 41.097656 L 14.855469 41.097656 Z M 14.855469 29.738281 " clip-rule="nonzero"/></clipPath><clipPath id="5c1c3fea24"><path d="M 21.722656 40.804688 L 27.507812 30.585938 C 27.609375 30.410156 27.609375 30.195312 27.507812 30.019531 C 27.40625 29.84375 27.21875 29.738281 27.019531 29.738281 L 15.457031 29.738281 C 15.257812 29.738281 15.070312 29.84375 14.972656 30.019531 C 14.871094 30.195312 14.871094 30.410156 14.96875 30.585938 L 20.757812 40.804688 C 20.855469 40.980469 21.039062 41.085938 21.238281 41.085938 C 21.4375 41.085938 21.621094 40.980469 21.722656 40.804688 Z M 21.722656 40.804688 " clip-rule="nonzero"/></clipPath><clipPath id="b3480e5bb5"><path d="M 21.722656 40.804688 L 27.507812 30.585938 C 27.609375 30.410156 27.609375 30.195312 27.507812 30.019531 C 27.40625 29.84375 27.21875 29.738281 27.019531 29.738281 L 15.457031 29.738281 C 15.257812 29.738281 15.070312 29.84375 14.972656 30.019531 C 14.871094 30.195312 14.871094 30.410156 14.96875 30.585938 L 20.757812 40.804688 C 20.855469 40.980469 21.039062 41.085938 21.238281 41.085938 C 21.4375 41.085938 21.621094 40.980469 21.722656 40.804688 Z M 21.722656 40.804688 " clip-rule="nonzero"/></clipPath><clipPath id="25bdb33610"><path d="M 21.957031 31.46875 L 37.148438 31.46875 L 37.148438 45.007812 L 21.957031 45.007812 Z M 21.957031 31.46875 " clip-rule="nonzero"/></clipPath><clipPath id="a0eb5f32a3"><path d="M 30.042969 31.753906 L 37.070312 44.15625 C 37.171875 44.332031 37.167969 44.550781 37.070312 44.726562 C 36.96875 44.898438 36.78125 45.007812 36.582031 45.007812 L 22.542969 45.007812 C 22.34375 45.007812 22.15625 44.898438 22.054688 44.726562 C 21.953125 44.550781 21.953125 44.332031 22.054688 44.15625 L 29.082031 31.753906 C 29.179688 31.578125 29.363281 31.472656 29.5625 31.472656 C 29.761719 31.472656 29.945312 31.578125 30.042969 31.753906 Z M 30.042969 31.753906 " clip-rule="nonzero"/></clipPath><clipPath id="f163a80558"><path d="M 30.042969 31.753906 L 37.070312 44.15625 C 37.171875 44.332031 37.167969 44.550781 37.070312 44.726562 C 36.96875 44.898438 36.78125 45.007812 36.582031 45.007812 L 22.542969 45.007812 C 22.34375 45.007812 22.15625 44.898438 22.054688 44.726562 C 21.953125 44.550781 21.953125 44.332031 22.054688 44.15625 L 29.082031 31.753906 C 29.179688 31.578125 29.363281 31.472656 29.5625 31.472656 C 29.761719 31.472656 29.945312 31.578125 30.042969 31.753906 Z M 30.042969 31.753906 " clip-rule="nonzero"/></clipPath></defs><g clip-path="url(#efc025f25f)"><g clip-path="url(#b2483f9055)"><g clip-path="url(#f51fcb11f0)"><path fill="#15c411" d="M 0.382812 17.296875 L 42.09375 17.296875 L 42.09375 60.523438 L 0.382812 60.523438 Z M 0.382812 17.296875 " fill-opacity="1" fill-rule="nonzero"/></g></g></g><g clip-path="url(#259bcba1e8)"><g clip-path="url(#37da4f43e1)"><g clip-path="url(#f98371b19e)"><path fill="#ffffff" d="M 4.925781 30.902344 L 20.929688 30.902344 L 20.929688 45.007812 L 4.925781 45.007812 Z M 4.925781 30.902344 " fill-opacity="1" fill-rule="nonzero"/></g></g></g><g clip-path="url(#ee8fa9f731)"><g clip-path="url(#5c1c3fea24)"><g clip-path="url(#b3480e5bb5)"><path fill="#ffffff" d="M 14.488281 29.738281 L 28.011719 29.738281 L 28.011719 41.65625 L 14.488281 41.65625 Z M 14.488281 29.738281 " fill-opacity="1" fill-rule="nonzero"/></g></g></g><g clip-path="url(#25bdb33610)"><g clip-path="url(#a0eb5f32a3)"><g clip-path="url(#f163a80558)"><path fill="#ffffff" d="M 21.570312 30.902344 L 37.574219 30.902344 L 37.574219 45.007812 L 21.570312 45.007812 Z M 21.570312 30.902344 " fill-opacity="1" fill-rule="nonzero"/></g></g></g><g fill="#15c411" fill-opacity="1"><g transform="translate(57.717584, 57.484645)"><g><path d="M 22.453125 -38.65625 L 38.046875 0 L 28.578125 0 L 25.71875 -7.734375 L 11.015625 -7.734375 L 8.15625 0 L -1.3125 0 L 14.296875 -38.65625 Z M 22.734375 -15.46875 L 18.421875 -26.703125 L 18.328125 -26.703125 L 14.015625 -15.46875 Z M 22.734375 -15.46875 "/></g></g></g><g fill="#15c411" fill-opacity="1"><g transform="translate(96.56738, 57.484645)"><g><path d="M 2.8125 0 L 2.8125 -40.296875 L 11.109375 -40.296875 L 11.109375 0 Z M 2.8125 0 "/></g></g></g><g fill="#15c411" fill-opacity="1"><g transform="translate(112.594885, 57.484645)"><g><path d="M 4.21875 -24.03125 L 4.21875 -32.984375 L 12.515625 -32.984375 L 12.515625 -24.03125 L 17.578125 -24.03125 L 17.578125 -17.71875 L 12.515625 -17.71875 L 12.515625 -10.078125 C 12.515625 -7.859375 13.140625 -6.75 14.390625 -6.75 C 14.703125 -6.75 15.03125 -6.8125 15.375 -6.9375 C 15.71875 -7.0625 15.984375 -7.1875 16.171875 -7.3125 L 16.453125 -7.5 L 18.515625 -0.796875 C 16.734375 0.203125 14.703125 0.703125 12.421875 0.703125 C 10.859375 0.703125 9.515625 0.429688 8.390625 -0.109375 C 7.265625 -0.660156 6.410156 -1.394531 5.828125 -2.3125 C 5.253906 -3.238281 4.84375 -4.207031 4.59375 -5.21875 C 4.34375 -6.238281 4.21875 -7.328125 4.21875 -8.484375 L 4.21875 -17.71875 L 0.75 -17.71875 L 0.75 -24.03125 Z M 4.21875 -24.03125 "/></g></g></g><g fill="#15c411" fill-opacity="1"><g transform="translate(133.214967, 57.484645)"><g><path d="M 3.609375 -37.4375 C 4.578125 -38.40625 5.734375 -38.890625 7.078125 -38.890625 C 8.421875 -38.890625 9.578125 -38.40625 10.546875 -37.4375 C 11.515625 -36.46875 12 -35.3125 12 -33.96875 C 12 -32.625 11.515625 -31.46875 10.546875 -30.5 C 9.578125 -29.53125 8.421875 -29.046875 7.078125 -29.046875 C 5.734375 -29.046875 4.578125 -29.53125 3.609375 -30.5 C 2.640625 -31.46875 2.15625 -32.625 2.15625 -33.96875 C 2.15625 -35.3125 2.640625 -36.46875 3.609375 -37.4375 Z M 2.8125 -24.03125 L 2.8125 0 L 11.109375 0 L 11.109375 -24.03125 Z M 2.8125 -24.03125 "/></g></g></g><g fill="#15c411" fill-opacity="1"><g transform="translate(149.476785, 57.484645)"><g><path d="M 13.265625 -24.734375 C 14.640625 -24.734375 16 -24.578125 17.34375 -24.265625 C 18.6875 -23.953125 19.6875 -23.640625 20.34375 -23.328125 L 21.328125 -22.875 L 18.609375 -17.4375 C 16.734375 -18.4375 14.953125 -18.9375 13.265625 -18.9375 C 12.328125 -18.9375 11.660156 -18.832031 11.265625 -18.625 C 10.878906 -18.425781 10.6875 -18.046875 10.6875 -17.484375 C 10.6875 -17.359375 10.703125 -17.234375 10.734375 -17.109375 C 10.765625 -16.984375 10.828125 -16.863281 10.921875 -16.75 C 11.015625 -16.644531 11.097656 -16.550781 11.171875 -16.46875 C 11.253906 -16.394531 11.390625 -16.3125 11.578125 -16.21875 C 11.765625 -16.125 11.910156 -16.050781 12.015625 -16 C 12.128906 -15.957031 12.3125 -15.890625 12.5625 -15.796875 C 12.8125 -15.703125 13 -15.628906 13.125 -15.578125 C 13.25 -15.535156 13.457031 -15.46875 13.75 -15.375 C 14.050781 -15.28125 14.28125 -15.21875 14.4375 -15.1875 C 15.40625 -14.90625 16.25 -14.59375 16.96875 -14.25 C 17.6875 -13.90625 18.441406 -13.4375 19.234375 -12.84375 C 20.035156 -12.25 20.65625 -11.5 21.09375 -10.59375 C 21.53125 -9.6875 21.75 -8.65625 21.75 -7.5 C 21.75 -2.03125 17.953125 0.703125 10.359375 0.703125 C 8.640625 0.703125 7.003906 0.4375 5.453125 -0.09375 C 3.910156 -0.625 2.796875 -1.15625 2.109375 -1.6875 L 1.078125 -2.53125 L 4.453125 -8.203125 C 4.703125 -7.984375 5.03125 -7.722656 5.4375 -7.421875 C 5.84375 -7.128906 6.578125 -6.722656 7.640625 -6.203125 C 8.703125 -5.691406 9.625 -5.4375 10.40625 -5.4375 C 12.125 -5.4375 12.984375 -6.015625 12.984375 -7.171875 C 12.984375 -7.703125 12.765625 -8.113281 12.328125 -8.40625 C 11.890625 -8.707031 11.144531 -9.046875 10.09375 -9.421875 C 9.050781 -9.796875 8.234375 -10.140625 7.640625 -10.453125 C 6.140625 -11.234375 4.953125 -12.113281 4.078125 -13.09375 C 3.203125 -14.082031 2.765625 -15.390625 2.765625 -17.015625 C 2.765625 -19.453125 3.707031 -21.347656 5.59375 -22.703125 C 7.488281 -24.054688 10.046875 -24.734375 13.265625 -24.734375 Z M 13.265625 -24.734375 "/></g></g></g><g fill="#15c411" fill-opacity="1"><g transform="translate(174.642571, 57.484645)"><g><path d="M 2.8125 0 L 2.8125 -24.03125 L 11.109375 -24.03125 L 11.109375 -20.578125 L 11.203125 -20.578125 C 11.265625 -20.703125 11.363281 -20.859375 11.5 -21.046875 C 11.644531 -21.234375 11.953125 -21.5625 12.421875 -22.03125 C 12.890625 -22.5 13.390625 -22.914062 13.921875 -23.28125 C 14.453125 -23.65625 15.140625 -23.988281 15.984375 -24.28125 C 16.828125 -24.582031 17.6875 -24.734375 18.5625 -24.734375 C 19.46875 -24.734375 20.359375 -24.609375 21.234375 -24.359375 C 22.109375 -24.109375 22.75 -23.859375 23.15625 -23.609375 L 23.796875 -23.25 L 20.34375 -16.21875 C 19.3125 -17.09375 17.875 -17.53125 16.03125 -17.53125 C 15.03125 -17.53125 14.171875 -17.3125 13.453125 -16.875 C 12.734375 -16.4375 12.222656 -15.90625 11.921875 -15.28125 C 11.628906 -14.65625 11.421875 -14.125 11.296875 -13.6875 C 11.171875 -13.25 11.109375 -12.90625 11.109375 -12.65625 L 11.109375 0 Z M 2.8125 0 "/></g></g></g><g fill="#15c411" fill-opacity="1"><g transform="translate(200.089543, 57.484645)"><g><path d="M 21.046875 -24.03125 L 30.59375 -24.03125 L 11.71875 12.1875 L 2.15625 12.1875 L 10.453125 -3.75 L -0.9375 -24.03125 L 8.625 -24.03125 L 15.328125 -11.71875 Z M 21.046875 -24.03125 "/></g></g></g></svg>